<svg width="14" height="14" viewBox="0 0 14 14" fill="none" xmlns="http://www.w3.org/2000/svg">
<g id="Group 1000004730">
<path id="Vector" d="M2.36277 9.47022C2.36277 10.4252 3.13697 11.1994 4.09198 11.1994C4.09198 11.9953 4.73715 12.6404 5.53299 12.6404C6.32883 12.6404 6.974 11.9953 6.974 11.1994C6.974 11.9953 7.61917 12.6404 8.41501 12.6404C9.21085 12.6404 9.85602 11.9952 9.85602 11.1994C10.8111 11.1994 11.5852 10.4252 11.5852 9.47017C11.5852 9.14236 11.494 8.83589 11.3357 8.57472C12.1344 8.42192 12.738 7.71963 12.738 6.87635C12.738 6.03307 12.1344 5.33075 11.3357 5.17797C11.494 4.91679 11.5852 4.61031 11.5852 4.28253C11.5852 3.32751 10.8111 2.55332 9.85602 2.55332C9.85602 1.75747 9.21085 1.1123 8.41501 1.1123C7.61917 1.1123 6.974 1.75752 6.974 2.55337C6.974 1.75752 6.32883 1.11236 5.53299 1.11236C4.73715 1.11236 4.09198 1.75752 4.09198 2.55337C3.13697 2.55337 2.36277 3.32756 2.36277 4.28258C2.36277 4.61036 2.45397 4.91684 2.61238 5.17802C1.81361 5.33081 1.20996 6.03313 1.20996 6.8764C1.20996 7.71968 1.81361 8.42197 2.61238 8.57478C2.45397 8.83595 2.36277 9.14242 2.36277 9.47022Z" stroke="white" stroke-width="0.823433" stroke-linecap="round" stroke-linejoin="round"/>
<path id="Vector_2" d="M4.37988 8.31756L5.44156 5.13254C5.49598 4.96926 5.64878 4.85913 5.82089 4.85913C5.99301 4.85913 6.14581 4.96926 6.20023 5.13254L7.2619 8.31756M8.99112 4.85913V8.31756M4.95629 7.16475H6.6855" stroke="white" stroke-width="0.823433" stroke-linecap="round" stroke-linejoin="round"/>
</g>
</svg>
