<svg width="18" height="17" viewBox="0 0 18 17" fill="none" xmlns="http://www.w3.org/2000/svg">
<g id="Group 1000004134">
<path id="Vector" d="M13.8 9.80005V16.2M17 13H10.6" stroke="white" stroke-width="1.5" stroke-linecap="round"/>
<path id="Vector_2" d="M5 4.2H12.8C14.4854 4.2 15.328 4.2 15.9334 4.60447C16.1954 4.77958 16.4204 5.00458 16.5955 5.26663C16.967 5.82255 16.997 6.74733 16.9995 8.2M9 4.2L8.49328 3.1865C8.07344 2.34686 7.68976 1.5017 6.75941 1.15281C6.35192 1 5.88642 1 4.95542 1C3.50224 1 2.77565 1 2.23045 1.30426C1.84182 1.52114 1.52114 1.84182 1.30426 2.23045C1 2.77565 1 3.50224 1 4.95542V7.4C1 11.1712 1 13.0569 2.17158 14.2284C3.2572 15.3141 4.95594 15.3937 8.2 15.3995" stroke="white" stroke-width="1.5" stroke-linecap="round"/>
</g>
</svg>
