<svg width="28" height="28" viewBox="0 0 28 28" fill="none" xmlns="http://www.w3.org/2000/svg">
<g id="Group 1000004879">
<circle id="Ellipse 11" cx="14" cy="14" r="14" fill="#454545"/>
<path id="Vector" fill-rule="evenodd" clip-rule="evenodd" d="M8 13.8889C8 11.5844 8 10.4318 8.71622 9.71622C9.43183 9 10.5844 9 12.8889 9H14.1111C16.4156 9 17.5682 9 18.2838 9.71622C19 10.4318 19 11.5844 19 13.8889V15.1111C19 17.4156 19 18.5682 18.2838 19.2838C17.5682 20 16.4156 20 14.1111 20H12.8889C10.5844 20 9.43183 20 8.71622 19.2838C8 18.5682 8 17.4156 8 15.1111V13.8889ZM17.1667 11.75C17.1667 11.9931 17.0701 12.2263 16.8982 12.3982C16.7263 12.5701 16.4931 12.6667 16.25 12.6667C16.0069 12.6667 15.7737 12.5701 15.6018 12.3982C15.4299 12.2263 15.3333 11.9931 15.3333 11.75C15.3333 11.5069 15.4299 11.2737 15.6018 11.1018C15.7737 10.9299 16.0069 10.8333 16.25 10.8333C16.4931 10.8333 16.7263 10.9299 16.8982 11.1018C17.0701 11.2737 17.1667 11.5069 17.1667 11.75ZM14.7222 15.1111C14.7222 15.4353 14.5935 15.7461 14.3642 15.9754C14.135 16.2046 13.8242 16.3333 13.5 16.3333C13.1758 16.3333 12.865 16.2046 12.6358 15.9754C12.4065 15.7461 12.2778 15.4353 12.2778 15.1111C12.2778 14.787 12.4065 14.4761 12.6358 14.2469C12.865 14.0177 13.1758 13.8889 13.5 13.8889C13.8242 13.8889 14.135 14.0177 14.3642 14.2469C14.5935 14.4761 14.7222 14.787 14.7222 15.1111ZM15.9444 15.1111C15.9444 15.7594 15.6869 16.3812 15.2285 16.8396C14.7701 17.298 14.1483 17.5556 13.5 17.5556C12.8517 17.5556 12.2299 17.298 11.7715 16.8396C11.3131 16.3812 11.0556 15.7594 11.0556 15.1111C11.0556 14.4628 11.3131 13.8411 11.7715 13.3826C12.2299 12.9242 12.8517 12.6667 13.5 12.6667C14.1483 12.6667 14.7701 12.9242 15.2285 13.3826C15.6869 13.8411 15.9444 14.4628 15.9444 15.1111Z" fill="white"/>
</g>
</svg>
