<svg width="11" height="11" viewBox="0 0 11 11" fill="none" xmlns="http://www.w3.org/2000/svg">
<path fill-rule="evenodd" clip-rule="evenodd" d="M0 4.88889C0 2.58439 -7.28501e-08 1.43183 0.716222 0.716222C1.43183 -7.28501e-08 2.58439 0 4.88889 0H6.11111C8.41561 0 9.56817 -7.28501e-08 10.2838 0.716222C11 1.43183 11 2.58439 11 4.88889V6.11111C11 8.41561 11 9.56817 10.2838 10.2838C9.56817 11 8.41561 11 6.11111 11H4.88889C2.58439 11 1.43183 11 0.716222 10.2838C-7.28501e-08 9.56817 0 8.41561 0 6.11111V4.88889ZM9.16667 2.75C9.16667 2.99312 9.07009 3.22627 8.89818 3.39818C8.72627 3.57009 8.49312 3.66667 8.25 3.66667C8.00688 3.66667 7.77373 3.57009 7.60182 3.39818C7.42991 3.22627 7.33333 2.99312 7.33333 2.75C7.33333 2.50688 7.42991 2.27373 7.60182 2.10182C7.77373 1.92991 8.00688 1.83333 8.25 1.83333C8.49312 1.83333 8.72627 1.92991 8.89818 2.10182C9.07009 2.27373 9.16667 2.50688 9.16667 2.75ZM6.72222 6.11111C6.72222 6.43526 6.59345 6.74614 6.36424 6.97535C6.13503 7.20456 5.82415 7.33333 5.5 7.33333C5.17585 7.33333 4.86497 7.20456 4.63576 6.97535C4.40655 6.74614 4.27778 6.43526 4.27778 6.11111C4.27778 5.78696 4.40655 5.47608 4.63576 5.24687C4.86497 5.01766 5.17585 4.88889 5.5 4.88889C5.82415 4.88889 6.13503 5.01766 6.36424 5.24687C6.59345 5.47608 6.72222 5.78696 6.72222 6.11111ZM7.94444 6.11111C7.94444 6.75942 7.68691 7.38117 7.22848 7.83959C6.77006 8.29802 6.14831 8.55556 5.5 8.55556C4.85169 8.55556 4.22994 8.29802 3.77152 7.83959C3.31309 7.38117 3.05556 6.75942 3.05556 6.11111C3.05556 5.4628 3.31309 4.84105 3.77152 4.38263C4.22994 3.92421 4.85169 3.66667 5.5 3.66667C6.14831 3.66667 6.77006 3.92421 7.22848 4.38263C7.68691 4.84105 7.94444 5.4628 7.94444 6.11111Z" fill="white"/>
</svg>
