<svg width="33" height="32" viewBox="0 0 33 32" fill="none" xmlns="http://www.w3.org/2000/svg">
<g id="Group 1000001753">
<circle id="Ellipse 797" cx="16.5673" cy="15.9281" r="15.9281" fill="#0E73B7"/>
<path id="Vector" d="M13.2424 21.6523H10.8253V13.8683H13.2424V21.6523ZM12.0326 12.8065C11.2596 12.8065 10.6327 12.1663 10.6327 11.3934C10.6327 11.0221 10.7802 10.6661 11.0427 10.4035C11.3052 10.141 11.6613 9.99353 12.0326 9.99353C12.4038 9.99353 12.7599 10.141 13.0224 10.4035C13.2849 10.6661 13.4324 11.0221 13.4324 11.3934C13.4324 12.1663 12.8052 12.8065 12.0326 12.8065ZM22.2891 21.6523H19.8771V17.8631C19.8771 16.9601 19.8589 15.802 18.6204 15.802C17.3637 15.802 17.1711 16.7831 17.1711 17.798V21.6523H14.7565V13.8683H17.0748V14.9301H17.1086C17.4314 14.3186 18.2196 13.6731 19.3957 13.6731C21.842 13.6731 22.2917 15.2841 22.2917 17.3764V21.6523H22.2891Z" fill="white"/>
</g>
</svg>
