<svg width="28" height="28" viewBox="0 0 28 28" fill="none" xmlns="http://www.w3.org/2000/svg">
<g id="Group 1000004878">
<circle id="Ellipse 11" cx="14" cy="14" r="14" fill="#454545"/>
<path id="Vector" d="M10.2143 9C9.89224 9 9.58338 9.12793 9.35566 9.35566C9.12793 9.58338 9 9.89224 9 10.2143C9 10.5363 9.12793 10.8452 9.35566 11.0729C9.58338 11.3006 9.89224 11.4286 10.2143 11.4286C10.5363 11.4286 10.8452 11.3006 11.0729 11.0729C11.3006 10.8452 11.4286 10.5363 11.4286 10.2143C11.4286 9.89224 11.3006 9.58338 11.0729 9.35566C10.8452 9.12793 10.5363 9 10.2143 9ZM9.07143 12.4286C9.05248 12.4286 9.03432 12.4361 9.02092 12.4495C9.00753 12.4629 9 12.4811 9 12.5V19.9286C9 19.968 9.032 20 9.07143 20H11.3571C11.3761 20 11.3943 19.9925 11.4077 19.9791C11.421 19.9657 11.4286 19.9475 11.4286 19.9286V12.5C11.4286 12.4811 11.421 12.4629 11.4077 12.4495C11.3943 12.4361 11.3761 12.4286 11.3571 12.4286H9.07143ZM12.7857 12.4286C12.7668 12.4286 12.7486 12.4361 12.7352 12.4495C12.7218 12.4629 12.7143 12.4811 12.7143 12.5V19.9286C12.7143 19.968 12.7463 20 12.7857 20H15.0714C15.0904 20 15.1085 19.9925 15.1219 19.9791C15.1353 19.9657 15.1429 19.9475 15.1429 19.9286V15.9286C15.1429 15.6444 15.2557 15.3719 15.4567 15.171C15.6576 14.97 15.9301 14.8571 16.2143 14.8571C16.4984 14.8571 16.771 14.97 16.9719 15.171C17.1728 15.3719 17.2857 15.6444 17.2857 15.9286V19.9286C17.2857 19.968 17.3177 20 17.3571 20H19.6429C19.6618 20 19.68 19.9925 19.6934 19.9791C19.7068 19.9657 19.7143 19.9475 19.7143 19.9286V15.0029C19.7143 13.616 18.5086 12.5314 17.1286 12.6566C16.7016 12.6954 16.2834 12.8011 15.8891 12.9697L15.1429 13.2897V12.5C15.1429 12.4811 15.1353 12.4629 15.1219 12.4495C15.1085 12.4361 15.0904 12.4286 15.0714 12.4286H12.7857Z" fill="white"/>
</g>
</svg>
