<svg width="12" height="14" viewBox="0 0 12 14" fill="none" xmlns="http://www.w3.org/2000/svg">
<g id="Group">
<path id="Vector" d="M5.83188 0.251709C7.36726 0.251709 8.83976 0.861636 9.92543 1.94731C11.0111 3.03299 11.621 4.50549 11.621 6.04087C11.621 8.01819 10.543 9.63658 9.40701 10.7976C8.83936 11.3713 8.22009 11.8915 7.55705 12.3517L7.28303 12.5382L7.15438 12.6238L6.91188 12.7782L6.69575 12.91L6.42817 13.0657C6.24645 13.1691 6.04097 13.2235 5.83188 13.2235C5.6228 13.2235 5.41731 13.1691 5.2356 13.0657L4.96801 12.91L4.63353 12.7042L4.51002 12.6238L4.2463 12.4482C3.531 11.964 2.86466 11.4112 2.25676 10.7976C1.12079 9.63593 0.0427246 8.01819 0.0427246 6.04087C0.0427246 4.50549 0.652652 3.03299 1.73833 1.94731C2.82401 0.861636 4.2965 0.251709 5.83188 0.251709ZM5.83188 4.11115C5.57847 4.11115 5.32754 4.16106 5.09341 4.25804C4.85929 4.35502 4.64656 4.49716 4.46736 4.67635C4.28817 4.85554 4.14603 5.06827 4.04905 5.30239C3.95208 5.53652 3.90216 5.78745 3.90216 6.04087C3.90216 6.29428 3.95208 6.54521 4.04905 6.77934C4.14603 7.01346 4.28817 7.22619 4.46736 7.40538C4.64656 7.58458 4.85929 7.72672 5.09341 7.82369C5.32754 7.92067 5.57847 7.97059 5.83188 7.97059C6.34368 7.97059 6.83451 7.76728 7.1964 7.40538C7.55829 7.04349 7.7616 6.55266 7.7616 6.04087C7.7616 5.52907 7.55829 5.03824 7.1964 4.67635C6.83451 4.31446 6.34368 4.11115 5.83188 4.11115Z" fill="#6D6D6D"/>
</g>
</svg>
