<svg width="15" height="19" viewBox="0 0 15 19" fill="none" xmlns="http://www.w3.org/2000/svg">
<path id="Vector" d="M7.27981 14.0121C7.73334 14.0121 8.16829 13.8309 8.48899 13.5085C8.80968 13.186 8.98984 12.7486 8.98984 12.2926C8.98984 11.3382 8.22033 10.573 7.27981 10.573C6.82628 10.573 6.39133 10.7542 6.07064 11.0767C5.74995 11.3991 5.56978 11.8365 5.56978 12.2926C5.56978 12.7486 5.74995 13.186 6.07064 13.5085C6.39133 13.8309 6.82628 14.0121 7.27981 14.0121ZM12.4099 6.27421C12.8634 6.27421 13.2984 6.45538 13.6191 6.77785C13.9398 7.10032 14.1199 7.53769 14.1199 7.99374V16.5914C14.1199 17.0474 13.9398 17.4848 13.6191 17.8073C13.2984 18.1297 12.8634 18.3109 12.4099 18.3109H2.14973C1.6962 18.3109 1.26125 18.1297 0.940553 17.8073C0.61986 17.4848 0.439697 17.0474 0.439697 16.5914V7.99374C0.439697 7.0394 1.20921 6.27421 2.14973 6.27421H3.00474V4.55468C3.00474 3.41456 3.45515 2.32114 4.25688 1.51496C5.05861 0.70877 6.14599 0.255859 7.27981 0.255859C7.84122 0.255859 8.39714 0.367052 8.91581 0.583088C9.43449 0.799124 9.90577 1.11577 10.3027 1.51496C10.6997 1.91414 11.0146 2.38804 11.2295 2.90959C11.4443 3.43115 11.5549 3.99015 11.5549 4.55468V6.27421H12.4099ZM7.27981 1.97539C6.59952 1.97539 5.94709 2.24713 5.46605 2.73085C4.98501 3.21456 4.71477 3.87061 4.71477 4.55468V6.27421H9.84486V4.55468C9.84486 3.87061 9.57461 3.21456 9.09357 2.73085C8.61253 2.24713 7.9601 1.97539 7.27981 1.97539Z" fill="#179ADA"/>
</svg>
