<svg width="13" height="18" viewBox="0 0 13 18" fill="none" xmlns="http://www.w3.org/2000/svg">
<path id="Vector" fill-rule="evenodd" clip-rule="evenodd" d="M1.38462 2.07692C1.38462 1.89331 1.45755 1.71722 1.58739 1.58739C1.71722 1.45755 1.89331 1.38462 2.07692 1.38462H10.3846C10.5682 1.38462 10.7443 1.45755 10.8742 1.58739C11.004 1.71722 11.0769 1.89331 11.0769 2.07692V15.9231C11.0769 16.1067 11.004 16.2828 10.8742 16.4126C10.7443 16.5424 10.5682 16.6154 10.3846 16.6154H2.07692C1.89331 16.6154 1.71722 16.5424 1.58739 16.4126C1.45755 16.2828 1.38462 16.1067 1.38462 15.9231V2.07692ZM2.07692 0C1.52609 0 0.997815 0.218818 0.608317 0.608317C0.218818 0.997815 0 1.52609 0 2.07692V15.9231C0 16.4739 0.218818 17.0022 0.608317 17.3917C0.997815 17.7812 1.52609 18 2.07692 18H10.3846C10.9354 18 11.4637 17.7812 11.8532 17.3917C12.2427 17.0022 12.4615 16.4739 12.4615 15.9231V2.07692C12.4615 1.52609 12.2427 0.997815 11.8532 0.608317C11.4637 0.218818 10.9354 0 10.3846 0H2.07692ZM4.15385 14.7462C4.02532 14.7462 3.90205 14.7972 3.81117 14.8881C3.72029 14.979 3.66923 15.1022 3.66923 15.2308C3.66923 15.3593 3.72029 15.4826 3.81117 15.5734C3.90205 15.6643 4.02532 15.7154 4.15385 15.7154H8.30769C8.43622 15.7154 8.55948 15.6643 8.65037 15.5734C8.74125 15.4826 8.79231 15.3593 8.79231 15.2308C8.79231 15.1022 8.74125 14.979 8.65037 14.8881C8.55948 14.7972 8.43622 14.7462 8.30769 14.7462H4.15385Z" fill="white"/>
</svg>
