<svg width="9" height="9" viewBox="0 0 9 9" fill="none" xmlns="http://www.w3.org/2000/svg">
<path d="M7.94525 2.05548L1.59889 0.581586C1.34856 0.52393 1.08653 0.544884 0.848539 0.64159C0.610547 0.738297 0.408173 0.90605 0.269006 1.12198C0.12984 1.33791 0.0606553 1.5915 0.0708845 1.84819C0.0811137 2.10487 0.170259 2.35216 0.326166 2.55632L1.81903 4.49684C1.85368 4.54411 1.87856 4.5978 1.89223 4.65478C1.9059 4.71177 1.90808 4.77091 1.89865 4.82875L1.44866 7.23535C1.41072 7.43995 1.42451 7.65079 1.48878 7.8487C1.55305 8.04662 1.66576 8.22534 1.81666 8.36861C1.96757 8.51189 2.15189 8.61518 2.35287 8.66911C2.55384 8.72303 2.76511 8.72588 2.96747 8.67738C3.15654 8.63002 3.33262 8.54098 3.48283 8.41677L8.46976 4.22403C8.6465 4.07469 8.77828 3.87919 8.85039 3.65932C8.92249 3.43946 8.93209 3.20388 8.87812 2.97888C8.82414 2.75387 8.7087 2.54829 8.5447 2.38507C8.38069 2.22185 8.17455 2.10741 7.94929 2.05451L7.94525 2.05548ZM7.93166 3.5869L2.94473 7.77964C2.87889 7.83322 2.79825 7.86539 2.7136 7.87184C2.62896 7.87828 2.54438 7.8587 2.47118 7.8157C2.39799 7.77271 2.33969 7.70837 2.3041 7.63131C2.26851 7.55424 2.25734 7.46814 2.27207 7.38454L2.71801 4.97891C2.72357 4.94688 2.72725 4.91455 2.72903 4.88209L5.51783 4.21306C5.62518 4.18731 5.7179 4.11997 5.7756 4.02585C5.83329 3.93173 5.85124 3.81855 5.82549 3.7112C5.79974 3.60385 5.73239 3.51113 5.63828 3.45343C5.54416 3.39573 5.43098 3.37779 5.32363 3.40354L2.53483 4.07257C2.51852 4.04445 2.50057 4.01731 2.48109 3.99129L0.992273 2.0498C0.941215 1.98199 0.912111 1.90019 0.908863 1.81536C0.905615 1.73054 0.928378 1.64675 0.9741 1.57523C1.01982 1.50371 1.08632 1.44788 1.16467 1.41523C1.24302 1.38257 1.32949 1.37465 1.41247 1.39253L7.75882 2.86643C7.83327 2.88449 7.90129 2.92274 7.95539 2.97698C8.00949 3.03122 8.04758 3.09934 8.06545 3.17383C8.08332 3.24833 8.08028 3.32631 8.05668 3.39919C8.03307 3.47207 7.98981 3.53703 7.93166 3.5869Z" fill="white"/>
</svg>
