<svg width="28" height="28" viewBox="0 0 28 28" fill="none" xmlns="http://www.w3.org/2000/svg">
<g id="Group 1000004877">
<circle id="Ellipse 11" cx="14" cy="14" r="14" fill="#454545"/>
<path id="Vector" d="M9.03046 9.63694C9.14761 9.62333 9.26626 9.64199 9.37357 9.69091C9.48088 9.73984 9.57278 9.81716 9.63933 9.91452C10.5944 11.3115 11.7409 11.8925 13.0137 12.0245C13.0758 11.4804 13.2226 10.9427 13.4989 10.469C13.904 9.77412 14.5627 9.26295 15.5035 9.07402C16.804 8.81261 17.794 9.28366 18.3679 9.86017L19.5274 9.64341C19.6488 9.62068 19.7741 9.63313 19.8885 9.67929C20.003 9.72545 20.1019 9.8034 20.1736 9.90394C20.2452 10.0045 20.2866 10.1234 20.2928 10.2467C20.299 10.37 20.2699 10.4925 20.2088 10.5997L19.0958 12.5551C19.1974 15.3768 18.4132 17.3464 16.7413 18.7033C15.8548 19.4228 14.5853 19.8311 13.1922 19.9573C11.7882 20.0841 10.201 19.9307 8.62348 19.47C8.48869 19.4307 8.37035 19.3486 8.28632 19.2362C8.20228 19.1237 8.15711 18.9869 8.15763 18.8465C8.15814 18.7061 8.2043 18.5697 8.28915 18.4578C8.374 18.346 8.49294 18.2648 8.628 18.2264C9.42128 18.0006 10.0256 17.8058 10.5711 17.4649C9.79527 17.0533 9.22393 16.515 8.81953 15.9016C8.2579 15.0488 8.04955 14.0976 8.00814 13.2403C7.96673 12.383 8.09031 11.5884 8.22102 11.0158C8.29543 10.689 8.38213 10.3616 8.50183 10.0485C8.54406 9.93807 8.61571 9.84135 8.70902 9.7688C8.80232 9.69626 8.91307 9.65065 9.03046 9.63694Z" fill="white"/>
</g>
</svg>
