<svg width="13" height="11" viewBox="0 0 13 11" fill="none" xmlns="http://www.w3.org/2000/svg">
<path d="M1.03046 0.636943C1.14761 0.623328 1.26626 0.641991 1.37357 0.690914C1.48088 0.739837 1.57278 0.81716 1.63933 0.914524C2.59436 2.31149 3.74092 2.89253 5.01365 3.02453C5.07577 2.48036 5.22265 1.94267 5.49893 1.46904C5.90398 0.774116 6.56267 0.262953 7.50347 0.0740167C8.80402 -0.187388 9.79399 0.283658 10.3679 0.860172L11.5274 0.643413C11.6488 0.620679 11.7741 0.633127 11.8885 0.67929C12.003 0.725453 12.1019 0.803404 12.1736 0.903943C12.2452 1.00448 12.2866 1.12341 12.2928 1.2467C12.299 1.36999 12.2699 1.49249 12.2088 1.59974L11.0958 3.5551C11.1974 6.37685 10.4132 8.34644 8.74126 9.70329C7.85481 10.4228 6.58532 10.8311 5.19224 10.9573C3.78816 11.0841 2.20096 10.9307 0.623475 10.47C0.488692 10.4307 0.370353 10.3486 0.286319 10.2362C0.202284 10.1237 0.157114 9.98692 0.157626 9.84652C0.158137 9.70612 0.204302 9.5697 0.289153 9.45784C0.374005 9.34598 0.492938 9.26475 0.628005 9.22642C1.42128 9.0006 2.02561 8.80584 2.57107 8.46485C1.79527 8.05333 1.22393 7.515 0.819529 6.9016C0.257897 6.0488 0.0495496 5.09765 0.00813898 4.24032C-0.0332717 3.38299 0.0903132 2.58842 0.221016 2.01579C0.295425 1.68903 0.382129 1.36163 0.501832 1.04846C0.544055 0.938069 0.615709 0.841351 0.709016 0.768805C0.802323 0.696258 0.913071 0.650654 1.03046 0.636943Z" fill="white"/>
</svg>
