<svg width="14" height="11" viewBox="0 0 14 11" fill="none" xmlns="http://www.w3.org/2000/svg">
<path fill-rule="evenodd" clip-rule="evenodd" d="M6.875 0C7.46281 0 8.06575 0.0151251 8.65012 0.0398751L9.34037 0.072875L10.0011 0.112063L10.6198 0.154L11.1849 0.198C11.7983 0.244675 12.3756 0.506298 12.815 0.936789C13.2544 1.36728 13.5278 1.93902 13.5871 2.55131L13.6146 2.8435L13.6661 3.46912C13.7143 4.11744 13.75 4.82419 13.75 5.5C13.75 6.17581 13.7143 6.88256 13.6661 7.53088L13.6146 8.1565L13.5871 8.44869C13.5278 9.06109 13.2543 9.63291 12.8147 10.0634C12.3751 10.4939 11.7978 10.7555 11.1842 10.802L10.6205 10.8453L10.0017 10.8879L9.34037 10.9271L8.65012 10.9601C8.05876 10.9857 7.46692 10.999 6.875 11C6.28308 10.999 5.69124 10.9857 5.09987 10.9601L4.40962 10.9271L3.74894 10.8879L3.13019 10.8453L2.56506 10.802C1.95168 10.7553 1.37445 10.4937 0.93503 10.0632C0.495611 9.63272 0.222194 9.06098 0.162937 8.44869L0.135438 8.1565L0.083875 7.53088C0.03151 6.85515 0.0035335 6.17775 0 5.5C0 4.82419 0.03575 4.11744 0.083875 3.46912L0.135438 2.8435L0.162937 2.55131C0.222171 1.93913 0.495489 1.36747 0.934768 0.936998C1.37405 0.506522 1.95112 0.24483 2.56437 0.198L3.12881 0.154L3.74756 0.112063L4.40894 0.072875L5.09919 0.0398751C5.69078 0.0142499 6.28285 0.000955337 6.875 0ZM5.5 3.83281V7.16719C5.5 7.48481 5.84375 7.68281 6.11875 7.52469L9.00625 5.8575C9.06908 5.82133 9.12127 5.76924 9.15756 5.70648C9.19385 5.64372 9.21296 5.5725 9.21296 5.5C9.21296 5.4275 9.19385 5.35628 9.15756 5.29352C9.12127 5.23076 9.06908 5.17867 9.00625 5.1425L6.11875 3.476C6.05602 3.43978 5.98487 3.42072 5.91243 3.42074C5.84 3.42075 5.76885 3.43983 5.70614 3.47607C5.64342 3.5123 5.59135 3.56441 5.55517 3.62716C5.51898 3.6899 5.49995 3.76107 5.5 3.8335V3.83281Z" fill="white"/>
</svg>
