<svg width="28" height="28" viewBox="0 0 28 28" fill="none" xmlns="http://www.w3.org/2000/svg">
<g id="Group 1000004880">
<circle id="Ellipse 11" cx="14" cy="14" r="14" fill="#454545"/>
<path id="Vector" fill-rule="evenodd" clip-rule="evenodd" d="M13.875 9C14.4628 9 15.0658 9.01513 15.6501 9.03988L16.3404 9.07287L17.0011 9.11206L17.6198 9.154L18.1849 9.198C18.7983 9.24468 19.3756 9.5063 19.815 9.93679C20.2544 10.3673 20.5278 10.939 20.5871 11.5513L20.6146 11.8435L20.6661 12.4691C20.7143 13.1174 20.75 13.8242 20.75 14.5C20.75 15.1758 20.7143 15.8826 20.6661 16.5309L20.6146 17.1565L20.5871 17.4487C20.5278 18.0611 20.2543 18.6329 19.8147 19.0634C19.3751 19.4939 18.7978 19.7555 18.1842 19.802L17.6205 19.8453L17.0017 19.8879L16.3404 19.9271L15.6501 19.9601C15.0588 19.9857 14.4669 19.999 13.875 20C13.2831 19.999 12.6912 19.9857 12.0999 19.9601L11.4096 19.9271L10.7489 19.8879L10.1302 19.8453L9.56506 19.802C8.95168 19.7553 8.37445 19.4937 7.93503 19.0632C7.49561 18.6327 7.22219 18.061 7.16294 17.4487L7.13544 17.1565L7.08387 16.5309C7.03151 15.8551 7.00353 15.1777 7 14.5C7 13.8242 7.03575 13.1174 7.08387 12.4691L7.13544 11.8435L7.16294 11.5513C7.22217 10.9391 7.49549 10.3675 7.93477 9.937C8.37405 9.50652 8.95112 9.24483 9.56437 9.198L10.1288 9.154L10.7476 9.11206L11.4089 9.07287L12.0992 9.03988C12.6908 9.01425 13.2828 9.00096 13.875 9ZM12.5 12.8328V16.1672C12.5 16.4848 12.8437 16.6828 13.1187 16.5247L16.0063 14.8575C16.0691 14.8213 16.1213 14.7692 16.1576 14.7065C16.1939 14.6437 16.213 14.5725 16.213 14.5C16.213 14.4275 16.1939 14.3563 16.1576 14.2935C16.1213 14.2308 16.0691 14.1787 16.0063 14.1425L13.1187 12.476C13.056 12.4398 12.9849 12.4207 12.9124 12.4207C12.84 12.4207 12.7689 12.4398 12.7061 12.4761C12.6434 12.5123 12.5914 12.5644 12.5552 12.6272C12.519 12.6899 12.5 12.7611 12.5 12.8335V12.8328Z" fill="white"/>
</g>
</svg>
